<?xml version="1.0" encoding="UTF-8" standalone="no"?>
<svg width="22px" height="20px" viewBox="0 0 22 20" version="1.1" xmlns="http://www.w3.org/2000/svg" xmlns:xlink="http://www.w3.org/1999/xlink">
    <g id="Page-1" stroke="none" stroke-width="1" fill="none" fill-rule="evenodd">
        <g id="AF---App-Android-#40" transform="translate(-213.000000, -42.000000)">
            <g id="ic_filter_list_24px" transform="translate(212.000000, 40.000000)">
                <rect id="Shape" x="0" y="0" width="24" height="24"></rect>
                <g id="Fill-87-+-Fill-88-+-Fill-89" transform="translate(1.000000, 2.000000)" fill="#1D1E1F">
                    <path d="M8,12.0005 C5.794,12.0005 4,10.2065 4,8.0005 C4,5.7945 5.794,4.0005 8,4.0005 C10.206,4.0005 12,5.7945 12,8.0005 C12,10.2065 10.206,12.0005 8,12.0005 Z M8,13.0005 C12.71,13.0005 16,15.4675 16,19.0005 L16,20.0005 L0,20.0005 L0,19.0005 C0,15.4675 3.29,13.0005 8,13.0005 Z M22,3.0005 L22,5.0005 L19,5.0005 L19,8.0005 L17,8.0005 L17,5.0005 L14,5.0005 L14,3.0005 L17,3.0005 L17,0.0005 L19,0.0005 L19,3.0005 L22,3.0005 Z" id="Fill-90"></path>
                </g>
            </g>
        </g>
    </g>
</svg>