<?xml version="1.0" encoding="UTF-8" standalone="no"?>
<svg width="32px" height="35px" viewBox="0 0 32 35" version="1.1" xmlns="http://www.w3.org/2000/svg" xmlns:xlink="http://www.w3.org/1999/xlink">
    <g id="Page-1" stroke="none" stroke-width="1" fill="none" fill-rule="evenodd">
        <g id="AF---App-Android-#34.1" transform="translate(-164.000000, -33.000000)" fill="#007FFF" fill-rule="nonzero">
            <g id="app-bar">
                <path d="M186.241815,44.1258404 C185.95034,44.3852453 185.56803,44.5425532 185.149425,44.5425532 C184.235299,44.5425532 183.494253,43.792392 183.494253,42.8670213 C183.494253,41.9416506 184.235299,41.1914894 185.149425,41.1914894 C185.183197,41.1914894 185.216732,41.1925132 185.250002,41.1945319 C185.302735,41.1905568 185.356397,41.1903745 185.410702,41.1942385 C187.574897,41.3482267 189.16284,43.8076414 188.992065,46.4844218 C188.815971,49.2445912 186.941034,51.7228314 183.494253,53.3250965 L183.494253,64.6489362 C183.494253,66.4459836 181.962427,68 180.183908,68 L167.310345,68 C165.531825,68 164,66.4459836 164,64.6489362 C164,63.5935233 164.370059,62.6744586 165.079081,61.9773942 L172.435403,54.9029262 L173.955402,56.5226058 L166.607904,63.5884927 C166.343147,63.8488207 166.206897,64.1872071 166.206897,64.6489362 C166.206897,65.2132335 166.751728,65.7659574 167.310345,65.7659574 L180.183908,65.7659574 C180.742525,65.7659574 181.287356,65.2132335 181.287356,64.6489362 L181.287356,53.5669237 C181.243279,53.5270977 181.20215,53.4834791 181.164513,53.436319 C177.561591,51.8388592 175.60195,49.3092912 175.421728,46.4844218 C175.250953,43.8076414 176.838896,41.3482267 179.003091,41.1942385 C179.057396,41.1903745 179.111059,41.1905568 179.163791,41.1945319 C179.197061,41.1925132 179.230596,41.1914894 179.264368,41.1914894 C180.178494,41.1914894 180.91954,41.9416506 180.91954,42.8670213 C180.91954,43.792392 180.178494,44.5425532 179.264368,44.5425532 C178.845763,44.5425532 178.463453,44.3852453 178.171978,44.1258404 C177.808583,44.6632524 177.567815,45.4592059 177.624036,46.3404402 C177.750191,48.3178345 179.220788,50.1852483 182.206897,51.4588169 C185.193005,50.1852483 186.663602,48.3178345 186.789757,46.3404402 C186.845978,45.4592059 186.60521,44.6632524 186.241815,44.1258404 Z M182.390805,60.9255319 C174.651516,60.9255319 168.413793,54.7362537 168.413793,47.1489362 C168.413793,39.2513433 174.589176,33 182.390805,33 C189.885928,33 196,39.3144503 196,47.1489362 C196,54.6741887 189.824617,60.9255319 182.390805,60.9255319 Z M182.390805,58.6914894 C188.605782,58.6914894 193.793103,53.440361 193.793103,47.1489362 C193.793103,40.5383769 188.657093,35.2340426 182.390805,35.2340426 C175.808011,35.2340426 170.62069,40.4851709 170.62069,47.1489362 C170.62069,53.4923034 175.860571,58.6914894 182.390805,58.6914894 Z" id="Line-2"></path>
            </g>
        </g>
    </g>
</svg>