<?xml version="1.0" encoding="UTF-8" standalone="no"?>
<svg width="24px" height="20px" viewBox="0 0 24 20" version="1.1" xmlns="http://www.w3.org/2000/svg" xmlns:xlink="http://www.w3.org/1999/xlink">
    <g id="Page-1" stroke="none" stroke-width="1" fill="none" fill-rule="evenodd">
        <g id="AF---App-Android-#34.1" transform="translate(-168.000000, -604.000000)" fill="#D8D8D8">
            <g id="Group-15" transform="translate(0.000000, 588.000000)">
                <g id="Group-3" transform="translate(168.000000, 14.000000)">
                    <path d="M21.9999676,7 L19.9999676,7 L19.9999676,5 C19.9999676,4.448 20.4489676,4 20.9999676,4 C21.5509676,4 21.9999676,4.448 21.9999676,5 L21.9999676,7 Z M17.9999676,7 L10.9999676,7 L10.9999676,5 L17.9999676,5 L17.9999676,7 Z M17.9999676,10 L10.9999676,10 L10.9999676,8 L17.9999676,8 L17.9999676,10 Z M17.9999676,13 L10.9999676,13 L10.9999676,11 L17.9999676,11 L17.9999676,13 Z M10.3669676,19 C10.7379676,18 11.4859676,17 12.9999676,17 C13.4489676,17 13.9999676,17.552 13.9999676,18 C13.9999676,18.348 14.0769676,18.683 14.1969676,19 L10.3669676,19 Z M20.9999676,2 L11.9999676,2 C10.3459676,2 8.99996758,3.346 8.99996758,5 L8.99996758,14 L13.9999676,14 C15.9999676,14 16.9999676,16 16.9999676,17 L16.9999676,19 C16.4459676,19 15.9999676,18.453 15.9999676,18 C15.9999676,16.458 14.5419676,15 12.9999676,15 L4.99996758,15 C1.22396758,15 0.0669675783,20.567 0.0199675783,20.804 C-0.0400324217,21.098 0.0369675783,21.402 0.226967578,21.634 C0.416967578,21.866 0.699967578,22 0.999967578,22 L8.99996758,22 C9.55196758,22 9.99996758,21.552 9.99996758,21 L16.9999676,21 C18.6539676,21 19.9999676,19.654 19.9999676,18 L19.9999676,9 L22.9999676,9 C23.5519676,9 23.9999676,8.552 23.9999676,8 L23.9999676,5 C23.9999676,3.346 22.6539676,2 20.9999676,2 L20.9999676,2 Z" id="Fill-425"></path>
                </g>
            </g>
        </g>
    </g>
</svg>