<?xml version="1.0" encoding="UTF-8" standalone="no"?>

<svg width="20px" height="16px" viewBox="0 0 20 16" version="1.1" xmlns="http://www.w3.org/2000/svg" xmlns:xlink="http://www.w3.org/1999/xlink">
        <path d="M22,17.57 L22,6 C22,4.9 21.1,4 20,4 L4,4 C2.9,4 2,4.9 2,6 L2,18 C2,19.1 2.9,20 4,20 L21.59,20 L17.89,16.3 C17.2,16.74 16.38,17 15.5,17 C13.01,17 11,14.99 11,12.5 C11,10.01 13.01,8 15.5,8 C17.99,8 20,10.01 20,12.5 C20,13.38 19.74,14.19 19.3,14.89 L22,17.57 Z M9,18 L4,18 L4,8 L9,8 L9,18 Z M13,12.5 C13,13.88 14.12,15 15.5,15 C16.88,15 18,13.88 18,12.5 C18,11.12 16.88,10 15.5,10 C14.12,10 13,11.12 13,12.5 Z" id="path-1"></path>


</svg>